<mxfile host="app.diagrams.net" modified="2023-10-13T09:29:29.709Z" agent="Mozilla/5.0 (Windows NT 10.0; Win64; x64) AppleWebKit/537.36 (KHTML, like Gecko) Chrome/117.0.0.0 Safari/537.36" version="21.7.2" etag="4XPM-l4Cl3SGgvRzvMUl" type="github">
  <diagram name="Страница — 1" id="m1R5kHN61oq7-paCA255">
    <mxGraphModel>
      <root>
        <mxCell id="0" />
        <mxCell id="1" parent="0" />
      </root>
    </mxGraphModel>
  </diagram>
</mxfile>
